<svg width="11" height="11" viewBox="0 0 11 11" fill="none" xmlns="http://www.w3.org/2000/svg">
<circle cx="5.5" cy="5.5" r="5.5" fill="#198754"/>
<path d="M4.76335 5.00098H5.40788C5.72363 5.00098 5.98405 4.94889 6.18913 4.84473C6.39746 4.7373 6.55208 4.59245 6.65299 4.41016C6.75716 4.22461 6.80924 4.01628 6.80924 3.78516C6.80924 3.51172 6.76367 3.28223 6.67253 3.09668C6.58138 2.91113 6.44466 2.77116 6.26237 2.67676C6.08008 2.58236 5.84896 2.53516 5.56901 2.53516C5.3151 2.53516 5.09049 2.58561 4.89518 2.68652C4.70313 2.78418 4.55176 2.92415 4.44108 3.10645C4.33366 3.28874 4.27995 3.50358 4.27995 3.75098H3.37663C3.37663 3.38965 3.46777 3.06087 3.65007 2.76465C3.83236 2.46842 4.08789 2.23242 4.41667 2.05664C4.7487 1.88086 5.13281 1.79297 5.56901 1.79297C5.9987 1.79297 6.37467 1.86947 6.69694 2.02246C7.01921 2.1722 7.26986 2.39681 7.44889 2.69629C7.62793 2.99251 7.71745 3.36198 7.71745 3.80469C7.71745 3.98372 7.67513 4.17578 7.59049 4.38086C7.50911 4.58268 7.38053 4.77148 7.20475 4.94727C7.03223 5.12305 6.80762 5.2679 6.53092 5.38184C6.25423 5.49251 5.9222 5.54785 5.53483 5.54785H4.76335V5.00098ZM4.76335 5.74316V5.20117H5.53483C5.9873 5.20117 6.36165 5.25488 6.65788 5.3623C6.9541 5.46973 7.18685 5.61296 7.35612 5.79199C7.52865 5.97103 7.64909 6.16797 7.71745 6.38281C7.78906 6.5944 7.82487 6.80599 7.82487 7.01758C7.82487 7.34961 7.7679 7.64421 7.65397 7.90137C7.54329 8.15853 7.38542 8.37663 7.18034 8.55566C6.97852 8.7347 6.74089 8.86979 6.46745 8.96094C6.19401 9.05208 5.89616 9.09766 5.57389 9.09766C5.26465 9.09766 4.97331 9.05371 4.69987 8.96582C4.42969 8.87793 4.19043 8.75098 3.9821 8.58496C3.77376 8.41569 3.611 8.20898 3.49382 7.96484C3.37663 7.71745 3.31803 7.43587 3.31803 7.12012H4.22135C4.22135 7.36751 4.27507 7.58398 4.38249 7.76953C4.49316 7.95508 4.64941 8.09993 4.85124 8.2041C5.05632 8.30501 5.2972 8.35547 5.57389 8.35547C5.85059 8.35547 6.08822 8.30827 6.28678 8.21387C6.48861 8.11621 6.64323 7.96973 6.75065 7.77441C6.86133 7.5791 6.91667 7.33333 6.91667 7.03711C6.91667 6.74089 6.85482 6.49837 6.73112 6.30957C6.60742 6.11751 6.43164 5.97591 6.20378 5.88477C5.97917 5.79036 5.71387 5.74316 5.40788 5.74316H4.76335Z" fill="white"/>
</svg>
