<svg width="11" height="11" viewBox="0 0 11 11" fill="none" xmlns="http://www.w3.org/2000/svg">
<circle cx="5.5" cy="5.5" r="5.5" fill="#198754"/>
<path d="M4.58757 5.61621L3.86491 5.43066L4.22135 1.89062H7.86882V2.72559H4.98796L4.77311 4.65918C4.90332 4.58431 5.06771 4.51432 5.26628 4.44922C5.4681 4.38411 5.69922 4.35156 5.95964 4.35156C6.28841 4.35156 6.58301 4.40853 6.84342 4.52246C7.10384 4.63314 7.3252 4.79264 7.50749 5.00098C7.69303 5.20931 7.83464 5.45996 7.93229 5.75293C8.02995 6.0459 8.07878 6.37305 8.07878 6.73438C8.07878 7.07617 8.03158 7.3903 7.93717 7.67676C7.84603 7.96322 7.70768 8.21387 7.52214 8.42871C7.33659 8.6403 7.10221 8.80469 6.81901 8.92188C6.53906 9.03906 6.20866 9.09766 5.8278 9.09766C5.54134 9.09766 5.26953 9.05859 5.01237 8.98047C4.75846 8.89909 4.5306 8.77702 4.32878 8.61426C4.13021 8.44824 3.96745 8.24316 3.84049 7.99902C3.7168 7.75163 3.63867 7.46191 3.60612 7.12988H4.46549C4.50456 7.39681 4.58268 7.62142 4.69987 7.80371C4.81706 7.986 4.97005 8.12435 5.15885 8.21875C5.35091 8.3099 5.57389 8.35547 5.8278 8.35547C6.04264 8.35547 6.23307 8.31803 6.39909 8.24316C6.5651 8.16829 6.70508 8.06087 6.81901 7.9209C6.93294 7.78092 7.01921 7.61165 7.0778 7.41309C7.13965 7.21452 7.17057 6.99154 7.17057 6.74414C7.17057 6.51953 7.13965 6.3112 7.0778 6.11914C7.01595 5.92708 6.92318 5.75944 6.79948 5.61621C6.67904 5.47298 6.53092 5.3623 6.35514 5.28418C6.17936 5.2028 5.97754 5.16211 5.74967 5.16211C5.44694 5.16211 5.21745 5.2028 5.0612 5.28418C4.9082 5.36556 4.75033 5.47624 4.58757 5.61621Z" fill="white"/>
</svg>
