<svg width="11" height="11" viewBox="0 0 11 11" fill="none" xmlns="http://www.w3.org/2000/svg">
<circle cx="5.5" cy="5.5" r="5.5" fill="#198754"/>
<path d="M6.91178 1.88086H6.98991V2.64746H6.91178C6.43327 2.64746 6.03288 2.72559 5.71061 2.88184C5.38835 3.03483 5.13281 3.24154 4.94401 3.50195C4.75521 3.75911 4.61849 4.04883 4.53385 4.37109C4.45247 4.69336 4.41178 5.02051 4.41178 5.35254V6.39746C4.41178 6.71322 4.44922 6.99316 4.52409 7.2373C4.59896 7.47819 4.7015 7.68164 4.83171 7.84766C4.96191 8.01367 5.1084 8.139 5.27116 8.22363C5.43717 8.30827 5.6097 8.35059 5.78874 8.35059C5.99707 8.35059 6.18262 8.31152 6.34538 8.2334C6.50814 8.15202 6.64486 8.03971 6.75553 7.89648C6.86947 7.75 6.95573 7.57747 7.01432 7.37891C7.07292 7.18034 7.10221 6.96224 7.10221 6.72461C7.10221 6.51302 7.07617 6.30957 7.02409 6.11426C6.97201 5.91569 6.89225 5.73991 6.78483 5.58691C6.67741 5.43066 6.54232 5.30859 6.37956 5.2207C6.22005 5.12956 6.02962 5.08398 5.80827 5.08398C5.55762 5.08398 5.32324 5.14583 5.10514 5.26953C4.8903 5.38997 4.71289 5.54948 4.57292 5.74805C4.4362 5.94336 4.35807 6.15658 4.33854 6.3877L3.86003 6.38281C3.9056 6.01823 3.99023 5.70736 4.11393 5.4502C4.24089 5.18978 4.39714 4.97819 4.58268 4.81543C4.77148 4.64941 4.98145 4.52897 5.21257 4.4541C5.44694 4.37598 5.69434 4.33691 5.95475 4.33691C6.30957 4.33691 6.61556 4.40365 6.87272 4.53711C7.12988 4.67057 7.34147 4.84961 7.50749 5.07422C7.6735 5.29557 7.79557 5.54622 7.8737 5.82617C7.95508 6.10286 7.99577 6.3877 7.99577 6.68066C7.99577 7.01595 7.94857 7.33008 7.85417 7.62305C7.75977 7.91602 7.61816 8.17318 7.42936 8.39453C7.24382 8.61589 7.01432 8.78841 6.74089 8.91211C6.46745 9.03581 6.15007 9.09766 5.78874 9.09766C5.40462 9.09766 5.06934 9.01953 4.78288 8.86328C4.49642 8.70378 4.25879 8.49219 4.06999 8.22852C3.88118 7.96484 3.73958 7.67188 3.64518 7.34961C3.55078 7.02734 3.50358 6.7002 3.50358 6.36816V5.94336C3.50358 5.44206 3.55404 4.95052 3.65495 4.46875C3.75586 3.98698 3.93001 3.55078 4.17741 3.16016C4.42806 2.76953 4.77474 2.45866 5.21745 2.22754C5.66016 1.99642 6.22493 1.88086 6.91178 1.88086Z" fill="white"/>
</svg>
