<svg width="11" height="11" viewBox="0 0 11 11" fill="none" xmlns="http://www.w3.org/2000/svg">
<circle cx="5.5" cy="5.5" r="5.5" fill="#198754"/>
<path d="M4.34342 8.24316H4.4362C4.95703 8.24316 5.38021 8.16992 5.70573 8.02344C6.03125 7.87695 6.2819 7.68001 6.45768 7.43262C6.63346 7.18522 6.75391 6.9069 6.81901 6.59766C6.88411 6.28516 6.91667 5.96452 6.91667 5.63574V4.54688C6.91667 4.22461 6.87923 3.93815 6.80436 3.6875C6.73275 3.43685 6.63184 3.22689 6.50163 3.05762C6.37467 2.88835 6.22982 2.75977 6.06706 2.67188C5.9043 2.58398 5.73177 2.54004 5.54948 2.54004C5.34115 2.54004 5.15397 2.58236 4.98796 2.66699C4.8252 2.74837 4.68685 2.86393 4.57292 3.01367C4.46224 3.16341 4.3776 3.33919 4.31901 3.54102C4.26042 3.74284 4.23112 3.96257 4.23112 4.2002C4.23112 4.41178 4.25716 4.61686 4.30924 4.81543C4.36133 5.014 4.44108 5.19303 4.5485 5.35254C4.65592 5.51204 4.78939 5.639 4.94889 5.7334C5.11165 5.82454 5.30208 5.87012 5.52018 5.87012C5.72201 5.87012 5.91081 5.83105 6.08659 5.75293C6.26563 5.67155 6.4235 5.5625 6.56022 5.42578C6.7002 5.28581 6.81087 5.12793 6.89225 4.95215C6.97689 4.77637 7.02572 4.59245 7.03874 4.40039H7.46842C7.46842 4.67057 7.41471 4.9375 7.30729 5.20117C7.20313 5.46159 7.05664 5.69922 6.86784 5.91406C6.67904 6.12891 6.45768 6.30143 6.20378 6.43164C5.94987 6.55859 5.67318 6.62207 5.3737 6.62207C5.02214 6.62207 4.71777 6.55371 4.46061 6.41699C4.20345 6.28027 3.99186 6.09798 3.82585 5.87012C3.66309 5.64225 3.54102 5.38835 3.45964 5.1084C3.38151 4.8252 3.34245 4.53874 3.34245 4.24902C3.34245 3.91048 3.38965 3.5931 3.48405 3.29688C3.57845 3.00065 3.71842 2.74023 3.90397 2.51562C4.08952 2.28776 4.31901 2.11035 4.59245 1.9834C4.86914 1.85645 5.18815 1.79297 5.54948 1.79297C5.95638 1.79297 6.30306 1.87435 6.58952 2.03711C6.87598 2.19987 7.10872 2.41797 7.28776 2.69141C7.47005 2.96484 7.60352 3.27246 7.68815 3.61426C7.77279 3.95605 7.8151 4.30762 7.8151 4.66895V4.99609C7.8151 5.36393 7.79069 5.73828 7.74186 6.11914C7.69629 6.49674 7.60677 6.85807 7.47331 7.20312C7.3431 7.54818 7.15267 7.85742 6.90202 8.13086C6.65137 8.40104 6.32422 8.61589 5.92057 8.77539C5.52018 8.93164 5.02539 9.00977 4.4362 9.00977H4.34342V8.24316Z" fill="white"/>
</svg>
