<svg width="11" height="11" viewBox="0 0 11 11" fill="none" xmlns="http://www.w3.org/2000/svg">
<circle cx="5.5" cy="5.5" r="5.5" fill="#717171"/>
<path d="M8.10319 8.25781V9H3.44987V8.35059L5.77897 5.75781C6.06543 5.4388 6.28678 5.16862 6.44303 4.94727C6.60254 4.72266 6.71322 4.52246 6.77507 4.34668C6.84017 4.16764 6.87272 3.98535 6.87272 3.7998C6.87272 3.56543 6.82389 3.35384 6.72624 3.16504C6.63184 2.97298 6.49186 2.81999 6.30632 2.70605C6.12077 2.59212 5.89616 2.53516 5.63249 2.53516C5.31673 2.53516 5.05306 2.59701 4.84147 2.7207C4.63314 2.84115 4.47689 3.01042 4.37272 3.22852C4.26855 3.44661 4.21647 3.69727 4.21647 3.98047H3.31315C3.31315 3.58008 3.40104 3.21387 3.57682 2.88184C3.7526 2.5498 4.01302 2.28613 4.35807 2.09082C4.70313 1.89225 5.12793 1.79297 5.63249 1.79297C6.08171 1.79297 6.46582 1.87272 6.78483 2.03223C7.10384 2.18848 7.34798 2.40983 7.51725 2.69629C7.68978 2.97949 7.77604 3.31152 7.77604 3.69238C7.77604 3.90072 7.74023 4.1123 7.66862 4.32715C7.60026 4.53874 7.50423 4.75033 7.38053 4.96191C7.26009 5.1735 7.11849 5.38184 6.95573 5.58691C6.79622 5.79199 6.62533 5.99382 6.44303 6.19238L4.53874 8.25781H8.10319Z" fill="white"/>
</svg>
