<?xml version="1.0" standalone="no"?>
<!DOCTYPE svg PUBLIC "-//W3C//DTD SVG 20010904//EN"
 "http://www.w3.org/TR/2001/REC-SVG-20010904/DTD/svg10.dtd">
<svg version="1.0" xmlns="http://www.w3.org/2000/svg"
 width="500.000000pt" height="500.000000pt" viewBox="0 0 500.000000 500.000000"
 preserveAspectRatio="xMidYMid meet">
<metadata>
Created by potrace 1.14, written by Peter Selinger 2001-2017
</metadata>
<g transform="translate(0.000000,500.000000) scale(0.100000,-0.100000)"
fill="#000000" stroke="none">
<path d="M825 4371 c-99 -18 -175 -90 -195 -185 -7 -35 -10 -570 -8 -1716 l3
-1665 22 -41 c29 -53 93 -110 140 -124 27 -8 518 -10 1729 -8 l1691 3 49 30
c30 19 60 49 79 79 l30 49 3 1691 c2 1539 1 1695 -14 1734 -21 56 -56 96 -113
130 l-46 27 -1665 1 c-916 1 -1683 -1 -1705 -5z m995 -666 l0 -555 -540 0
-540 0 0 505 c0 558 -1 546 63 585 31 19 54 20 525 20 l492 0 0 -555z m1240 0
l0 -555 -585 0 -585 0 0 555 0 555 585 0 585 0 0 -555z m1149 521 c17 -17 36
-46 41 -65 6 -22 10 -233 10 -523 l0 -488 -565 0 -565 0 0 555 0 556 524 -3
525 -3 30 -29z m-2389 -1716 l0 -570 -540 0 -540 0 0 570 0 570 540 0 540 0 0
-570z m1240 0 l0 -570 -585 0 -585 0 0 570 0 570 585 0 585 0 0 -570z m1200 0
l0 -570 -267 0 c-195 1 -263 4 -250 11 11 6 30 9 43 6 14 -2 27 0 30 5 3 5 12
7 20 4 7 -3 16 -1 19 5 4 5 11 7 16 4 5 -4 9 -1 9 5 0 7 7 10 15 6 8 -3 15 0
15 6 0 6 3 9 6 5 4 -3 13 1 21 9 8 8 19 12 24 9 5 -4 9 -1 9 5 0 6 4 9 9 6 5
-3 12 1 15 10 3 8 10 13 15 9 6 -3 15 4 21 15 6 11 16 17 22 14 6 -4 8 -3 5 3
-4 6 1 17 10 24 14 12 16 12 8 -1 -8 -13 -6 -13 8 -2 9 8 15 19 14 25 -1 7 4
11 10 10 7 -2 12 0 11 5 -4 11 42 82 53 82 6 0 7 5 4 10 -3 6 -1 10 5 10 6 0
8 5 5 10 -3 6 -1 10 5 10 6 0 8 5 5 10 -3 6 -2 10 4 10 6 0 8 7 5 15 -4 8 -1
15 5 15 6 0 8 6 5 14 -3 8 0 17 5 21 6 3 9 11 5 16 -3 5 -1 15 4 22 5 7 7 57
5 112 -5 130 -5 136 -18 132 -5 -2 -9 -13 -7 -23 9 -54 1 -201 -12 -222 -4 -7
-4 -16 -1 -22 3 -5 2 -10 -4 -10 -5 0 -12 -13 -16 -30 -15 -69 -129 -210 -207
-258 -16 -9 -28 -20 -28 -25 0 -4 -4 -5 -10 -2 -5 3 -10 1 -10 -4 0 -6 -3 -10
-7 -9 -7 2 -47 -11 -123 -39 -51 -20 -206 -19 -239 1 -6 4 -11 3 -11 -3 0 -16
16 -21 70 -25 28 -2 54 -7 57 -10 4 -3 -116 -6 -265 -6 l-272 0 0 570 0 570
565 0 565 0 0 -570z m-2440 -1200 l0 -560 -500 0 c-448 0 -503 2 -526 16 -55
36 -54 31 -54 589 l0 515 540 0 540 0 0 -560z m1240 0 l0 -560 -585 0 -585 0
0 560 0 560 585 0 585 0 0 -560z m1198 75 c2 -264 0 -500 -3 -524 -5 -32 -16
-54 -40 -78 l-33 -33 -526 0 -526 0 0 560 0 560 563 -2 562 -3 3 -480z"/>
<path d="M1130 3931 c-67 -54 -122 -102 -122 -106 0 -11 86 -115 96 -115 4 0
35 23 67 51 l59 51 0 -251 0 -251 95 0 95 0 0 360 0 360 -84 0 -84 0 -122 -99z"/>
<path d="M3580 4027 c-54 -13 -140 -52 -140 -63 0 -4 16 -33 36 -66 28 -45 40
-58 53 -52 95 40 160 45 191 14 23 -23 24 -33 9 -62 -15 -28 -69 -48 -129 -48
l-50 0 0 -74 0 -74 74 -4 c88 -4 116 -22 116 -74 0 -63 -86 -88 -200 -59 -36
9 -75 19 -87 22 -22 5 -23 3 -23 -69 0 -87 2 -89 117 -109 96 -17 214 -6 280
26 108 53 149 152 103 252 -21 48 -66 80 -124 90 l-39 6 45 23 c150 76 152
248 4 309 -53 22 -168 28 -236 12z"/>
<path d="M1131 2619 l-151 -221 0 -69 0 -69 145 0 145 0 0 -70 0 -70 95 0 95
0 0 70 0 70 40 0 40 0 0 70 0 70 -40 0 -40 0 0 220 0 220 -89 0 -89 0 -151
-221z m136 -216 c-3 -2 -30 -3 -60 -1 l-56 3 54 84 c30 46 56 89 57 95 1 6 4
-31 5 -83 2 -51 2 -95 0 -98z"/>
<path d="M3653 3053 c9 -2 25 -2 35 0 9 3 1 5 -18 5 -19 0 -27 -2 -17 -5z"/>
<path d="M3279 2893 l-34 -38 38 34 c20 19 37 36 37 38 0 8 -8 0 -41 -34z"/>
<path d="M4062 2886 c20 -23 47 -58 61 -79 14 -21 28 -33 31 -28 3 5 -24 40
-61 78 -38 38 -52 51 -31 29z"/>
<path d="M3712 2850 c-73 -11 -155 -53 -197 -102 -58 -68 -77 -134 -83 -278
-3 -111 -1 -132 18 -184 50 -133 187 -196 333 -152 65 20 99 47 132 108 55
102 33 273 -43 327 -74 52 -171 50 -233 -6 -38 -35 -39 -35 -39 -11 0 13 10
44 23 68 32 65 77 85 190 84 l87 0 0 72 0 71 -46 7 c-53 7 -69 6 -142 -4z m14
-398 c47 -31 44 -145 -5 -172 -51 -27 -101 22 -101 99 0 31 6 44 26 60 27 21
60 27 80 13z"/>
<path d="M4155 2761 c-3 -6 -1 -11 5 -11 6 0 8 -4 5 -10 -3 -5 -1 -10 5 -10 6
0 9 -4 6 -9 -3 -5 1 -12 9 -15 13 -5 13 -1 -1 27 -21 41 -21 40 -29 28z"/>
<path d="M4188 2683 c7 -3 16 -2 19 1 4 3 -2 6 -13 5 -11 0 -14 -3 -6 -6z"/>
<path d="M4195 2659 c-10 -15 3 -25 16 -12 7 7 7 13 1 17 -6 3 -14 1 -17 -5z"/>
<path d="M3320 2095 c13 -14 26 -25 28 -25 3 0 -5 11 -18 25 -13 14 -26 25
-28 25 -3 0 5 -11 18 -25z"/>
<path d="M3368 2057 c15 -18 72 -50 72 -40 0 4 -19 18 -41 30 -23 12 -36 17
-31 10z"/>
<path d="M3470 1999 c0 -5 5 -7 10 -4 6 3 10 8 10 11 0 2 -4 4 -10 4 -5 0 -10
-5 -10 -11z"/>
<path d="M3515 1980 c3 -5 8 -10 11 -10 2 0 4 5 4 10 0 6 -5 10 -11 10 -5 0
-7 -4 -4 -10z"/>
<path d="M2410 1647 c-100 -28 -150 -83 -150 -164 1 -50 30 -113 69 -145 17
-15 31 -29 31 -31 0 -2 -18 -17 -40 -32 -84 -58 -107 -190 -46 -270 46 -60
102 -80 226 -80 98 0 109 2 160 30 42 23 60 41 78 75 25 51 29 118 8 158 -15
28 -65 78 -104 104 l-22 15 39 26 c53 35 85 102 79 166 -9 96 -78 147 -209
156 -45 3 -91 0 -119 -8z m130 -147 c28 -28 25 -54 -11 -85 l-32 -26 -28 27
c-35 33 -37 67 -7 88 30 21 54 20 78 -4z m4 -314 c64 -59 40 -126 -44 -126
-82 0 -110 74 -49 131 17 16 37 29 44 29 8 0 30 -15 49 -34z"/>
</g>
</svg>
