<svg width="11" height="11" viewBox="0 0 11 11" fill="none" xmlns="http://www.w3.org/2000/svg">
<circle cx="5.5" cy="5.5" r="5.5" fill="#884E82"/>
<path d="M8.10807 9H3.44987V8.35059L5.91081 5.61621C6.27539 5.2028 6.52604 4.86751 6.66276 4.61035C6.80273 4.34993 6.87272 4.08138 6.87272 3.80469C6.87272 3.43359 6.76042 3.12923 6.53581 2.8916C6.3112 2.65397 6.01172 2.53516 5.63737 2.53516C5.18815 2.53516 4.83822 2.66374 4.58757 2.9209C4.34017 3.1748 4.21647 3.52962 4.21647 3.98535H3.31315C3.31315 3.33105 3.52311 2.80208 3.94303 2.39844C4.36621 1.99479 4.93099 1.79297 5.63737 1.79297C6.29818 1.79297 6.82064 1.96712 7.20475 2.31543C7.58887 2.66048 7.78092 3.12109 7.78092 3.69727C7.78092 4.39714 7.33496 5.23047 6.44303 6.19727L4.53874 8.2627H8.10807V9Z" fill="white"/>
</svg>
