<svg width="11" height="11" viewBox="0 0 11 11" fill="none" xmlns="http://www.w3.org/2000/svg">
<circle cx="5.5" cy="5.5" r="5.5" fill="#884E82"/>
<path d="M4.76335 5.00586H5.44206C5.86849 4.99935 6.20378 4.88704 6.44792 4.66895C6.69206 4.45085 6.81413 4.15625 6.81413 3.78516C6.81413 2.95182 6.39909 2.53516 5.56901 2.53516C5.17839 2.53516 4.86589 2.64746 4.63151 2.87207C4.40039 3.09342 4.28483 3.38802 4.28483 3.75586H3.38151C3.38151 3.19271 3.58659 2.72559 3.99674 2.35449C4.41016 1.98014 4.93424 1.79297 5.56901 1.79297C6.23958 1.79297 6.7653 1.97038 7.14616 2.3252C7.52702 2.68001 7.71745 3.17318 7.71745 3.80469C7.71745 4.11393 7.61654 4.41341 7.41471 4.70312C7.21615 4.99284 6.94434 5.20931 6.59928 5.35254C6.98991 5.47624 7.29102 5.68132 7.5026 5.96777C7.71745 6.25423 7.82487 6.60417 7.82487 7.01758C7.82487 7.6556 7.61654 8.16178 7.19987 8.53613C6.7832 8.91048 6.24121 9.09766 5.57389 9.09766C4.90658 9.09766 4.36296 8.91699 3.94303 8.55566C3.52637 8.19434 3.31803 7.71745 3.31803 7.125H4.22624C4.22624 7.49935 4.34831 7.79883 4.59245 8.02344C4.83659 8.24805 5.16374 8.36035 5.57389 8.36035C6.01009 8.36035 6.34375 8.24642 6.57487 8.01855C6.80599 7.79069 6.92155 7.46354 6.92155 7.03711C6.92155 6.6237 6.7946 6.30632 6.54069 6.08496C6.28678 5.86361 5.92057 5.74967 5.44206 5.74316H4.76335V5.00586Z" fill="white"/>
</svg>
