<svg width="11" height="11" viewBox="0 0 11 11" fill="none" xmlns="http://www.w3.org/2000/svg">
<circle cx="5.5" cy="5.5" r="5.5" fill="#884E82"/>
<path d="M3.86491 5.43555L4.22624 1.89062H7.86882V2.72559H4.99284L4.77799 4.66406C5.1263 4.45898 5.52181 4.35645 5.96452 4.35645C6.6123 4.35645 7.12663 4.57129 7.50749 5.00098C7.88835 5.42741 8.07878 6.00521 8.07878 6.73438C8.07878 7.4668 7.88021 8.0446 7.48307 8.46777C7.08919 8.8877 6.53743 9.09766 5.8278 9.09766C5.19954 9.09766 4.68685 8.9235 4.28971 8.5752C3.89258 8.22689 3.66634 7.74512 3.611 7.12988H4.46549C4.52083 7.53678 4.66569 7.8444 4.90007 8.05273C5.13444 8.25781 5.44368 8.36035 5.8278 8.36035C6.24772 8.36035 6.5765 8.21712 6.81413 7.93066C7.05501 7.64421 7.17546 7.2487 7.17546 6.74414C7.17546 6.26888 7.04525 5.88802 6.78483 5.60156C6.52767 5.31185 6.18424 5.16699 5.75456 5.16699C5.36068 5.16699 5.05143 5.25326 4.82682 5.42578L4.58757 5.62109L3.86491 5.43555Z" fill="white"/>
</svg>
