<svg width="11" height="11" viewBox="0 0 11 11" fill="none" xmlns="http://www.w3.org/2000/svg">
<circle cx="5.5" cy="5.5" r="5.5" fill="#884E82"/>
<path d="M6.99479 1.88574V2.65234H6.82878C6.12565 2.66536 5.56576 2.8737 5.14909 3.27734C4.73242 3.68099 4.49154 4.24902 4.42643 4.98145C4.80078 4.55176 5.31185 4.33691 5.95964 4.33691C6.57813 4.33691 7.07129 4.55501 7.43913 4.99121C7.81022 5.42741 7.99577 5.99056 7.99577 6.68066C7.99577 7.41309 7.79557 7.99902 7.39518 8.43848C6.99805 8.87793 6.46419 9.09766 5.79362 9.09766C5.11328 9.09766 4.56152 8.83724 4.13835 8.31641C3.71517 7.79232 3.50358 7.11849 3.50358 6.29492V5.94824C3.50358 4.63965 3.7819 3.6403 4.33854 2.9502C4.89844 2.25684 5.73014 1.90202 6.83366 1.88574H6.99479ZM5.80827 5.08887C5.49902 5.08887 5.21419 5.18164 4.95378 5.36719C4.69336 5.55273 4.5127 5.78548 4.41178 6.06543V6.39746C4.41178 6.9834 4.54362 7.4554 4.80729 7.81348C5.07096 8.17155 5.39974 8.35059 5.79362 8.35059C6.20052 8.35059 6.51953 8.20085 6.75065 7.90137C6.98503 7.60189 7.10221 7.20964 7.10221 6.72461C7.10221 6.23633 6.9834 5.84245 6.74577 5.54297C6.51139 5.24023 6.19889 5.08887 5.80827 5.08887Z" fill="white"/>
</svg>
