<svg width="11" height="11" viewBox="0 0 11 11" fill="none" xmlns="http://www.w3.org/2000/svg">
<circle cx="5.5" cy="5.5" r="5.5" fill="#884E82"/>
<path d="M7.76139 3.74609C7.76139 4.10091 7.66699 4.41667 7.47819 4.69336C7.29264 4.97005 7.04036 5.18652 6.72135 5.34277C7.09245 5.50228 7.38542 5.73503 7.60026 6.04102C7.81836 6.34701 7.92741 6.69368 7.92741 7.08105C7.92741 7.69629 7.71908 8.1862 7.30241 8.55078C6.889 8.91536 6.34375 9.09766 5.66667 9.09766C4.98307 9.09766 4.43457 8.91536 4.02116 8.55078C3.611 8.18294 3.40592 7.69303 3.40592 7.08105C3.40592 6.69694 3.51009 6.35026 3.71842 6.04102C3.93001 5.73177 4.22135 5.4974 4.59245 5.33789C4.27669 5.18164 4.02767 4.96517 3.84538 4.68848C3.66309 4.41178 3.57194 4.09766 3.57194 3.74609C3.57194 3.14714 3.764 2.67188 4.14811 2.32031C4.53223 1.96875 5.03841 1.79297 5.66667 1.79297C6.29167 1.79297 6.79622 1.96875 7.18034 2.32031C7.56771 2.67188 7.76139 3.14714 7.76139 3.74609ZM7.02409 7.06152C7.02409 6.66439 6.89714 6.34049 6.64323 6.08984C6.39258 5.83919 6.0638 5.71387 5.6569 5.71387C5.25 5.71387 4.92285 5.83757 4.67546 6.08496C4.43132 6.33236 4.30924 6.65788 4.30924 7.06152C4.30924 7.46517 4.42806 7.78255 4.66569 8.01367C4.90658 8.24479 5.24023 8.36035 5.66667 8.36035C6.08984 8.36035 6.42188 8.24479 6.66276 8.01367C6.90365 7.7793 7.02409 7.46191 7.02409 7.06152ZM5.66667 2.53516C5.31185 2.53516 5.02376 2.64583 4.80241 2.86719C4.58431 3.08529 4.47526 3.38314 4.47526 3.76074C4.47526 4.12207 4.58268 4.41504 4.79753 4.63965C5.01563 4.861 5.30534 4.97168 5.66667 4.97168C6.02799 4.97168 6.31608 4.861 6.53092 4.63965C6.74902 4.41504 6.85807 4.12207 6.85807 3.76074C6.85807 3.39941 6.74577 3.10482 6.52116 2.87695C6.29655 2.64909 6.01172 2.53516 5.66667 2.53516Z" fill="white"/>
</svg>
