<svg width="11" height="11" viewBox="0 0 11 11" fill="none" xmlns="http://www.w3.org/2000/svg">
<circle cx="5.5" cy="5.5" r="5.5" fill="#884E82"/>
<path d="M6.91178 5.875C6.72298 6.09961 6.49674 6.28027 6.23307 6.41699C5.97266 6.55371 5.6862 6.62207 5.3737 6.62207C4.96354 6.62207 4.60547 6.52116 4.29948 6.31934C3.99674 6.11751 3.76237 5.83431 3.59635 5.46973C3.43034 5.10189 3.34733 4.69661 3.34733 4.25391C3.34733 3.77865 3.43685 3.35059 3.61589 2.96973C3.79818 2.58887 4.05534 2.29753 4.38737 2.0957C4.7194 1.89388 5.10677 1.79297 5.54948 1.79297C6.2526 1.79297 6.80599 2.05664 7.20964 2.58398C7.61654 3.10807 7.81999 3.82422 7.81999 4.73242V4.99609C7.81999 6.37956 7.54655 7.3903 6.99967 8.02832C6.4528 8.66309 5.6276 8.98861 4.52409 9.00488H4.34831V8.24316H4.53874C5.28418 8.23014 5.8571 8.03646 6.25749 7.66211C6.65788 7.28451 6.87598 6.6888 6.91178 5.875ZM5.52018 5.875C5.82292 5.875 6.10124 5.78223 6.35514 5.59668C6.6123 5.41113 6.79948 5.18164 6.91667 4.9082V4.54688C6.91667 3.95443 6.78809 3.47266 6.53092 3.10156C6.27376 2.73047 5.94824 2.54492 5.55436 2.54492C5.15723 2.54492 4.83822 2.69792 4.59733 3.00391C4.35645 3.30664 4.236 3.70703 4.236 4.20508C4.236 4.6901 4.35156 5.09049 4.58268 5.40625C4.81706 5.71875 5.12956 5.875 5.52018 5.875Z" fill="white"/>
</svg>
