<svg width="11" height="11" viewBox="0 0 11 11" fill="none" xmlns="http://www.w3.org/2000/svg">
<circle cx="5.5" cy="5.5" r="5.5" fill="#0DCAF0"/>
<path d="M7.92741 7.07617C7.92741 7.50911 7.8265 7.87695 7.62467 8.17969C7.42611 8.47917 7.15592 8.70703 6.81413 8.86328C6.47559 9.01953 6.0931 9.09766 5.66667 9.09766C5.24023 9.09766 4.85612 9.01953 4.51432 8.86328C4.17253 8.70703 3.90234 8.47917 3.70378 8.17969C3.50521 7.87695 3.40592 7.50911 3.40592 7.07617C3.40592 6.79297 3.45964 6.53418 3.56706 6.2998C3.67773 6.06217 3.83236 5.85547 4.03092 5.67969C4.23275 5.50391 4.47038 5.36882 4.74382 5.27441C5.02051 5.17676 5.32487 5.12793 5.6569 5.12793C6.0931 5.12793 6.4821 5.21257 6.82389 5.38184C7.16569 5.54785 7.43424 5.77734 7.62956 6.07031C7.82813 6.36328 7.92741 6.69857 7.92741 7.07617ZM7.01921 7.05664C7.01921 6.79297 6.96224 6.56022 6.84831 6.3584C6.73438 6.15332 6.57487 5.99382 6.36979 5.87988C6.16471 5.76595 5.92708 5.70898 5.6569 5.70898C5.38021 5.70898 5.14095 5.76595 4.93913 5.87988C4.74056 5.99382 4.58594 6.15332 4.47526 6.3584C4.36458 6.56022 4.30924 6.79297 4.30924 7.05664C4.30924 7.33008 4.36296 7.56445 4.47038 7.75977C4.58105 7.95182 4.7373 8.09993 4.93913 8.2041C5.14421 8.30501 5.38672 8.35547 5.66667 8.35547C5.94661 8.35547 6.1875 8.30501 6.38932 8.2041C6.59115 8.09993 6.74577 7.95182 6.85319 7.75977C6.96387 7.56445 7.01921 7.33008 7.01921 7.05664ZM7.76139 3.74121C7.76139 4.08626 7.67025 4.39714 7.48796 4.67383C7.30566 4.95052 7.05664 5.16862 6.74089 5.32812C6.42513 5.48763 6.06706 5.56738 5.66667 5.56738C5.25977 5.56738 4.89681 5.48763 4.5778 5.32812C4.26204 5.16862 4.01465 4.95052 3.83561 4.67383C3.65658 4.39714 3.56706 4.08626 3.56706 3.74121C3.56706 3.3278 3.65658 2.97624 3.83561 2.68652C4.0179 2.39681 4.26693 2.17546 4.58268 2.02246C4.89844 1.86947 5.25814 1.79297 5.66178 1.79297C6.06868 1.79297 6.43001 1.86947 6.74577 2.02246C7.06152 2.17546 7.30892 2.39681 7.48796 2.68652C7.67025 2.97624 7.76139 3.3278 7.76139 3.74121ZM6.85807 3.75586C6.85807 3.51823 6.80762 3.30827 6.70671 3.12598C6.60579 2.94368 6.46582 2.80046 6.28678 2.69629C6.10775 2.58887 5.89941 2.53516 5.66178 2.53516C5.42415 2.53516 5.21582 2.58561 5.03678 2.68652C4.861 2.78418 4.72266 2.92415 4.62174 3.10645C4.52409 3.28874 4.47526 3.50521 4.47526 3.75586C4.47526 4 4.52409 4.21322 4.62174 4.39551C4.72266 4.5778 4.86263 4.7194 5.04167 4.82031C5.2207 4.92122 5.42904 4.97168 5.66667 4.97168C5.9043 4.97168 6.111 4.92122 6.28678 4.82031C6.46582 4.7194 6.60579 4.5778 6.70671 4.39551C6.80762 4.21322 6.85807 4 6.85807 3.75586Z" fill="white"/>
</svg>
